<?xml version="1.0" encoding="UTF-8" standalone="no"?>
<!DOCTYPE svg PUBLIC "-//W3C//DTD SVG 1.1//EN"
 "http://www.w3.org/Graphics/SVG/1.1/DTD/svg11.dtd">
<!-- Generated by graphviz version 2.43.0 (0)
 -->
<!-- Title: G Pages: 1 -->
<svg width="229pt" height="371pt"
 viewBox="0.00 0.00 229.50 371.00" xmlns="http://www.w3.org/2000/svg" xmlns:xlink="http://www.w3.org/1999/xlink">
<g id="graph0" class="graph" transform="scale(1 1) rotate(0) translate(4 367)">
<title>G</title><style>.edge>path:hover{stroke-width:8}</style>
<polygon fill="white" stroke="transparent" points="-4,4 -4,-367 225.5,-367 225.5,4 -4,4"/>
<!-- battle_system -->
<g id="node1" class="node">
<title>battle_system</title><style>.edge>path:hover{stroke-width:8}</style>
<polygon fill="#f91010" stroke="black" points="106.5,-363 103.5,-367 82.5,-367 79.5,-363 20.5,-363 20.5,-327 106.5,-327 106.5,-363"/>
<text text-anchor="middle" x="63.5" y="-342.5" font-family="Helvetica,sans-Serif" font-size="10.00" fill="#ffffff">battle_system</text>
</g>
<!-- game_system -->
<g id="node2" class="node">
<title>game_system</title><style>.edge>path:hover{stroke-width:8}</style>
<polygon fill="#a9c247" stroke="black" points="147.5,-145 144.5,-149 123.5,-149 120.5,-145 61.5,-145 61.5,-109 147.5,-109 147.5,-145"/>
<text text-anchor="middle" x="104.5" y="-124.5" font-family="Helvetica,sans-Serif" font-size="10.00" fill="#000000">game_system</text>
</g>
<!-- battle_system&#45;&gt;game_system -->
<g id="edge1" class="edge">
<title>battle_system&#45;&gt;game_system</title><style>.edge>path:hover{stroke-width:8}</style>
<path fill="none" stroke="black" d="M63.5,-290C63.5,-262.98 100.29,-278.11 112.5,-254 128.23,-222.92 121.35,-181.88 113.86,-155.22"/>
<polygon fill="#f91010" stroke="black" points="117.14,-153.98 110.9,-145.41 110.44,-156 117.14,-153.98"/>
</g>
<!-- main_py -->
<g id="node4" class="node">
<title>main_py</title><style>.edge>path:hover{stroke-width:8}</style>
<ellipse fill="#354863" stroke="black" cx="104.5" cy="-18" rx="32.93" ry="18"/>
<text text-anchor="middle" x="104.5" y="-15.5" font-family="Helvetica,sans-Serif" font-size="10.00" fill="#ffffff">main.py</text>
</g>
<!-- battle_system&#45;&gt;main_py -->
<g id="edge2" class="edge">
<title>battle_system&#45;&gt;main_py</title><style>.edge>path:hover{stroke-width:8}</style>
<path fill="none" stroke="black" d="M63.89,-326.81C64.03,-316.43 64.04,-302.95 63.5,-291"/>
<path fill="none" stroke="black" d="M63.5,-290C62.26,-263 26.7,-278.11 14.5,-254 -11.08,-203.47 0.32,-173.9 33.5,-128"/>
<path fill="none" stroke="black" d="M33.5,-126C39.82,-116.6 43.6,-116.02 52.5,-109 74.57,-91.59 103.3,-101.08 104.5,-73"/>
<path fill="none" stroke="black" d="M104.5,-72C104.85,-63.69 104.95,-54.64 104.94,-46.41"/>
<polygon fill="#f91010" stroke="black" points="108.44,-46.17 104.87,-36.19 101.44,-46.22 108.44,-46.17"/>
</g>
<!-- map_system -->
<g id="node5" class="node">
<title>map_system</title><style>.edge>path:hover{stroke-width:8}</style>
<polygon fill="#b13bce" stroke="black" points="103.5,-254 100.5,-258 79.5,-258 76.5,-254 23.5,-254 23.5,-218 103.5,-218 103.5,-254"/>
<text text-anchor="middle" x="63.5" y="-233.5" font-family="Helvetica,sans-Serif" font-size="10.00" fill="#ffffff">map_system</text>
</g>
<!-- battle_system&#45;&gt;map_system -->
<g id="edge3" class="edge">
<title>battle_system&#45;&gt;map_system</title><style>.edge>path:hover{stroke-width:8}</style>
<path fill="none" stroke="black" d="M63.5,-290C63.5,-281.68 63.5,-272.63 63.5,-264.4"/>
<polygon fill="#f91010" stroke="black" points="67,-264.19 63.5,-254.19 60,-264.19 67,-264.19"/>
</g>
<!-- game_system&#45;&gt;main_py -->
<g id="edge4" class="edge">
<title>game_system&#45;&gt;main_py</title><style>.edge>path:hover{stroke-width:8}</style>
<path fill="none" stroke="black" d="M104.5,-108.81C104.5,-98.44 104.5,-84.96 104.5,-73"/>
</g>
<!-- keyboard -->
<g id="node3" class="node">
<title>keyboard</title><style>.edge>path:hover{stroke-width:8}</style>
<polygon fill="#269b55" stroke="black" points="221.5,-254 218.5,-258 197.5,-258 194.5,-254 159.5,-254 159.5,-218 221.5,-218 221.5,-254"/>
<text text-anchor="middle" x="190.5" y="-233.5" font-family="Helvetica,sans-Serif" font-size="10.00" fill="#ffffff">keyboard</text>
</g>
<!-- keyboard&#45;&gt;game_system -->
<g id="edge5" class="edge">
<title>keyboard&#45;&gt;game_system</title><style>.edge>path:hover{stroke-width:8}</style>
<path fill="none" stroke="black" d="M186.99,-217.84C184.5,-207.24 180.68,-193.51 175.5,-182"/>
<path fill="none" stroke="black" d="M175.5,-181C170.01,-168.82 160.08,-158.8 149.34,-150.88"/>
<polygon fill="#269b55" stroke="black" points="151.27,-147.96 141.03,-145.23 147.34,-153.75 151.27,-147.96"/>
</g>
<!-- keyboard&#45;&gt;main_py -->
<g id="edge6" class="edge">
<title>keyboard&#45;&gt;main_py</title><style>.edge>path:hover{stroke-width:8}</style>
<path fill="none" stroke="black" d="M175.5,-181C161.91,-150.82 175.5,-136.1 156.5,-109 140.36,-85.99 104.5,-101.11 104.5,-73"/>
</g>
<!-- map_system&#45;&gt;game_system -->
<g id="edge7" class="edge">
<title>map_system&#45;&gt;game_system</title><style>.edge>path:hover{stroke-width:8}</style>
<path fill="none" stroke="black" d="M33.5,-181C33.99,-167.77 42.17,-157.45 52.82,-149.57"/>
<polygon fill="#b13bce" stroke="black" points="54.89,-152.4 61.36,-144.01 51.07,-146.53 54.89,-152.4"/>
</g>
<!-- map_system&#45;&gt;main_py -->
<g id="edge8" class="edge">
<title>map_system&#45;&gt;main_py</title><style>.edge>path:hover{stroke-width:8}</style>
<path fill="none" stroke="black" d="M47.4,-217.71C40.03,-207.95 33.01,-195.1 33.5,-182"/>
<path fill="none" stroke="black" d="M33.5,-181C34.37,-157.46 19.7,-147.09 33.5,-128"/>
</g>
</g>
</svg>
